<?xml version="1.0" encoding="UTF-8"?>
<svg version="1.1" xmlns="http://www.w3.org/2000/svg" width="500" height="500">
<path d="M0 0 C165 0 330 0 500 0 C500 165 500 330 500 500 C335 500 170 500 0 500 C0 335 0 170 0 0 Z " fill="#D8D6D3" transform="translate(0,0)"/>
<path d="M0 0 C2.64 0 5.28 0 8 0 C7.97679687 1.03640625 7.95359375 2.0728125 7.9296875 3.140625 C7.91092333 4.51040944 7.89272382 5.8802017 7.875 7.25 C7.85824219 7.93191406 7.84148437 8.61382812 7.82421875 9.31640625 C7.78786518 13.0608235 7.92055651 15.82352727 10 19 C9.525625 19.556875 9.05125 20.11375 8.5625 20.6875 C6.86622176 23.1979918 6.50398979 25.04945782 6 28 C6.845625 27.39671875 7.69125 26.7934375 8.5625 26.171875 C18.84961678 18.89788007 27.84427138 12.63496951 41 14 C46.78979434 15.57538598 49.94634907 18.54007747 52.9921875 23.609375 C56.60789404 32.18616726 56.05553198 40.11896956 55.39453125 49.24414062 C55.10337047 55.14998812 55.10337047 55.14998812 57.77246094 60.19873047 C59.90956496 62.07490531 59.90956496 62.07490531 62.16552734 63.59545898 C64 65 64 65 65 68 C63.0625 70.6875 63.0625 70.6875 61 73 C60.51789063 72.50628906 60.03578125 72.01257813 59.5390625 71.50390625 C58.90742188 70.86324219 58.27578125 70.22257812 57.625 69.5625 C56.99851562 68.92441406 56.37203125 68.28632813 55.7265625 67.62890625 C54.08276939 65.92117824 54.08276939 65.92117824 52 65 C51.9175 65.556875 51.835 66.11375 51.75 66.6875 C50.38875964 70.88465779 48.04155069 73.3756699 44.2890625 75.625 C38.25590835 78.1471737 30.90708849 78.20317626 24.640625 76.2734375 C20.88221961 74.29786544 18.51937677 71.93250458 17 68 C16.40977218 63.93398614 16.07142992 61.53860156 18.20703125 58 C20.78943966 54.86188345 23.12165437 52.40237757 27 51 C30.4609375 50.76953125 30.4609375 50.76953125 34.375 50.8125 C36.30472656 50.82216797 36.30472656 50.82216797 38.2734375 50.83203125 C41.60656851 50.98226672 44.7286925 51.36700706 48 52 C49.11716138 37.7815254 49.11716138 37.7815254 44 25 C40.79886161 22.08340725 39.0312151 21.08347932 34.71875 20.734375 C30.59247644 21.02910883 28.00862072 21.97946452 24.3125 23.8125 C23.21550781 24.33457031 22.11851562 24.85664063 20.98828125 25.39453125 C19.64117227 26.23533321 18.31480064 27.10952272 17 28 C15.97535645 28.65057373 14.95071289 29.30114746 13.89501953 29.97143555 C9.64535561 32.98997576 5.8053775 36.06971268 4.37808228 41.26278687 C3.51203723 47.56485344 3.90404012 53.85850117 4.25 60.1875 C4.31029184 62.11246284 4.36502737 64.03760815 4.4140625 65.96289062 C4.54533718 70.64648815 4.75175424 75.3212039 5 80 C2.36 80 -0.28 80 -3 80 C-3.495 64.655 -3.495 64.655 -4 49 C-8.29 55.27 -12.58 61.54 -17 68 C-20.39914975 66.86695008 -21.05254451 65.87481525 -23 63 C-21.70344429 60.25146788 -20.27004885 57.87371876 -18.42578125 55.4609375 C-17.92602783 54.80295166 -17.42627441 54.14496582 -16.91137695 53.46704102 C-16.38374756 52.77666748 -15.85611816 52.08629395 -15.3125 51.375 C-14.22851908 49.93408069 -13.14518377 48.49267547 -12.0625 47.05078125 C-10.29023414 44.69773907 -8.50238103 42.36368655 -6.6875 40.04296875 C-6.06875 39.22441406 -5.45 38.40585938 -4.8125 37.5625 C-4.01779297 36.54349609 -4.01779297 36.54349609 -3.20703125 35.50390625 C-1.39579468 32.10092965 -1.39579468 32.10092965 -1 24 C-10.405 24.99 -10.405 24.99 -20 26 C-20 23.36 -20 20.72 -20 18 C-10.595 17.01 -10.595 17.01 -1 16 C-0.67 10.72 -0.34 5.44 0 0 Z " fill="#070606" transform="translate(294,214)"/>
<path d="M0 0 C6.63693857 7.39544584 8.88191719 14.09215787 8.3984375 23.98046875 C8.32882813 24.79128906 8.25921875 25.60210937 8.1875 26.4375 C5.02288385 28.01980808 1.59670633 27.67907813 -1.8828125 27.75390625 C-2.67904022 27.77468735 -3.47526794 27.79546844 -4.29562378 27.81687927 C-6.84282685 27.88234149 -9.39013425 27.94124415 -11.9375 28 C-13.66277127 28.0431884 -15.38803193 28.08680279 -17.11328125 28.13085938 C-21.34624685 28.23801945 -25.57931753 28.33929623 -29.8125 28.4375 C-30.00551212 30.84343573 -30.00551212 30.84343573 -29.8125 33.4375 C-25.46916875 37.66344392 -21.89582445 38.71604084 -15.8671875 38.671875 C-12.82494535 38.32485118 -10.48892611 36.86492726 -7.8125 35.4375 C-5.25 34.875 -5.25 34.875 -2.8125 35.4375 C2.11391261 40.14972076 2.11391261 40.14972076 2.3125 43.625 C-0.21104145 47.69070567 -5.02020168 49.02066648 -9.4375 50.1875 C-17.80518418 52.13036525 -25.52584764 51.90461 -33.10546875 47.59765625 C-39.86162337 43.00594476 -44.63950851 36.23527033 -46.8125 28.4375 C-47.86119345 19.7388638 -46.99784526 12.62110027 -41.8125 5.4375 C-30.41107832 -7.97593727 -14.49401599 -8.05223111 0 0 Z " fill="#030303" transform="translate(237.8125,239.5625)"/>
<path d="M0 0 C1.86421831 0.39246701 3.7285703 0.79670727 5.5625 1.3125 C9.44674279 2.16217811 13.1967004 2.34061604 16.875 0.75 C22.47176417 -1.3325169 28.43902448 -1.09589796 33.875 1.375 C38.67845218 4.19315441 41.67981916 7.0547875 43.42138672 12.37255859 C45.44003107 20.59401741 46.00182872 28.4524824 45.89868164 36.86547852 C45.87458461 38.97384433 45.8782123 41.08098005 45.88476562 43.18945312 C45.84230685 53.47019315 45.84230685 53.47019315 43.5625 55.75 C40.7421875 55.9453125 40.7421875 55.9453125 37.4375 55.875 C36.34179688 55.85695313 35.24609375 55.83890625 34.1171875 55.8203125 C33.27414063 55.79710937 32.43109375 55.77390625 31.5625 55.75 C29.97240004 52.56980008 30.42645504 49.12929239 30.421875 45.63671875 C30.40354518 43.97980398 30.3839747 42.32290256 30.36328125 40.66601562 C30.33432407 38.0522617 30.31250035 35.43936416 30.31201172 32.82543945 C30.30867225 30.3034253 30.27409449 27.78338887 30.234375 25.26171875 C30.2414447 24.48446945 30.2485144 23.70722015 30.25579834 22.90641785 C30.16478285 18.83710401 29.7408177 16.97240724 27.16308594 13.75732422 C23.72921228 11.10680702 21.89539014 11.08075931 17.71484375 11.32421875 C13.81710348 12.09527808 11.62677877 14.17086139 9.45727539 17.38989258 C8.16467358 20.79932824 8.22442056 24.16238677 8.18359375 27.76171875 C8.16659927 28.53054886 8.1496048 29.29937897 8.13209534 30.09150696 C8.07908335 32.54008857 8.03870269 34.98865368 8 37.4375 C7.95610223 39.89697462 7.90947218 42.35631695 7.85719299 44.81562805 C7.82517815 46.34465071 7.79830611 47.87379103 7.77696228 49.40299988 C7.67427473 54.63822527 7.67427473 54.63822527 6.5625 55.75 C4.56450428 55.84873816 2.56292842 55.87971799 0.5625 55.875 C-0.530625 55.87757813 -1.62375 55.88015625 -2.75 55.8828125 C-5.4375 55.75 -5.4375 55.75 -6.4375 54.75 C-6.54653405 53.13967466 -6.58655598 51.52461178 -6.59863281 49.91064453 C-6.60824036 48.87932404 -6.6178479 47.84800354 -6.62774658 46.78543091 C-6.63199646 45.66256683 -6.63624634 44.53970276 -6.640625 43.3828125 C-6.64632507 42.23714813 -6.65202515 41.09148376 -6.65789795 39.91110229 C-6.66736503 37.48159718 -6.67388868 35.05207911 -6.67773438 32.62255859 C-6.68744036 28.89788495 -6.7184486 25.17376273 -6.75 21.44921875 C-6.75652955 19.09375329 -6.76178021 16.73828387 -6.765625 14.3828125 C-6.7779718 13.26399689 -6.7903186 12.14518127 -6.80303955 10.99246216 C-6.80003845 9.95483734 -6.79703735 8.91721252 -6.79394531 7.84814453 C-6.79759094 6.93404816 -6.80123657 6.01995178 -6.80499268 5.07815552 C-6.4375 2.75 -6.4375 2.75 -5.13006592 0.91574097 C-3.4375 -0.25 -3.4375 -0.25 0 0 Z " fill="#040404" transform="translate(144.4375,234.25)"/>
<path d="M0 0 C1.98 0 3.96 0 6 0 C6.33 1.65 6.66 3.3 7 5 C7.66 5 8.32 5 9 5 C9.33 3.35 9.66 1.7 10 0 C10.99 0 11.98 0 13 0 C13.66 1.32 14.32 2.64 15 4 C15.99 2.68 16.98 1.36 18 0 C20.97 0.495 20.97 0.495 24 1 C24 1.66 24 2.32 24 3 C21.03 2.505 21.03 2.505 18 2 C18 2.99 18 3.98 18 5 C21.465 4.505 21.465 4.505 25 4 C25 2.68 25 1.36 25 0 C25.5775 0.185625 26.155 0.37125 26.75 0.5625 C29.20692525 1.04023546 30.64397534 0.75729364 33 0 C32.67 0.66 32.34 1.32 32 2 C31.34 2 30.68 2 30 2 C31.32 3.32 32.64 4.64 34 6 C34.66 4.02 35.32 2.04 36 0 C36.99 0 37.98 0 39 0 C39.99 1.98 40.98 3.96 42 6 C42.144375 5.195625 42.28875 4.39125 42.4375 3.5625 C43 1 43 1 44 0 C46.35313555 -0.07271741 48.70833668 -0.08370868 51.0625 -0.0625 C52.35285156 -0.05347656 53.64320313 -0.04445313 54.97265625 -0.03515625 C55.97167969 -0.02355469 56.97070312 -0.01195312 58 0 C56.68 0.33 55.36 0.66 54 1 C54 1.66 54 2.32 54 3 C55.32 3.33 56.64 3.66 58 4 C56.68 4 55.36 4 54 4 C54 4.66 54 5.32 54 6 C55.32 6 56.64 6 58 6 C58.144375 7.11375 58.28875 8.2275 58.4375 9.375 C58.78372035 12.82142047 58.78372035 12.82142047 60 15 C59.01 14.67 58.02 14.34 57 14 C57 13.34 57 12.68 57 12 C56.01 12 55.02 12 54 12 C54 12.99 54 13.98 54 15 C49.64011928 15.09890664 45.28083327 15.17148376 40.92016602 15.21972656 C39.43697739 15.23983759 37.95386801 15.26713074 36.47094727 15.30175781 C34.33850565 15.35030352 32.20711223 15.37297195 30.07421875 15.390625 C28.79119873 15.41157227 27.50817871 15.43251953 26.1862793 15.45410156 C23 15 23 15 21.05786133 12.97558594 C20.70876709 12.32364258 20.35967285 11.67169922 20 11 C19.67 12.32 19.34 13.64 19 15 C14.71 15 10.42 15 6 15 C5.67 14.34 5.34 13.68 5 13 C4.67 13.66 4.34 14.32 4 15 C3.34 15 2.68 15 2 15 C1.67 14.34 1.34 13.68 1 13 C0.67 13.66 0.34 14.32 0 15 C-0.66 15 -1.32 15 -2 15 C-2 12.69 -2 10.38 -2 8 C-1.34 7.67 -0.68 7.34 0 7 C0 4.69 0 2.38 0 0 Z " fill="#959492" transform="translate(227,302)"/>
<path d="M0 0 C1.98 0 3.96 0 6 0 C6.33 1.65 6.66 3.3 7 5 C7.66 5 8.32 5 9 5 C9.33 3.35 9.66 1.7 10 0 C10.99 0 11.98 0 13 0 C13.66 1.32 14.32 2.64 15 4 C15.99 2.68 16.98 1.36 18 0 C20.97 0.495 20.97 0.495 24 1 C24 1.66 24 2.32 24 3 C21.03 2.505 21.03 2.505 18 2 C18 2.99 18 3.98 18 5 C21.465 4.505 21.465 4.505 25 4 C25 2.68 25 1.36 25 0 C25.5775 0.185625 26.155 0.37125 26.75 0.5625 C29.20692525 1.04023546 30.64397534 0.75729364 33 0 C32.67 0.66 32.34 1.32 32 2 C31.34 2 30.68 2 30 2 C31.32 3.32 32.64 4.64 34 6 C34.66 4.02 35.32 2.04 36 0 C36.99 0 37.98 0 39 0 C39.66 2.31 40.32 4.62 41 7 C39.39620659 7.05416188 37.79188594 7.09286638 36.1875 7.125 C35.29417969 7.14820313 34.40085937 7.17140625 33.48046875 7.1953125 C31 7 31 7 28 5 C27.67 5.66 27.34 6.32 27 7 C24.67843403 7.40729228 22.3431213 7.74438677 20 8 C20.99 9.32 21.98 10.64 23 12 C23.66 10.68 24.32 9.36 25 8 C25 10.31 25 12.62 25 15 C21.125 13.25 21.125 13.25 20 11 C19.67 12.32 19.34 13.64 19 15 C14.71 15 10.42 15 6 15 C5.67 14.34 5.34 13.68 5 13 C4.67 13.66 4.34 14.32 4 15 C3.34 15 2.68 15 2 15 C1.67 14.34 1.34 13.68 1 13 C0.67 13.66 0.34 14.32 0 15 C-0.66 15 -1.32 15 -2 15 C-2 12.69 -2 10.38 -2 8 C-1.34 7.67 -0.68 7.34 0 7 C0 4.69 0 2.38 0 0 Z " fill="#545352" transform="translate(227,302)"/>
<path d="M0 0 C3.18221864 2.23615364 3.90652264 3.67867157 5 7.4375 C5 11 5 11 3.1875 13.875 C0.64465703 16.34519031 -0.31435615 16.90858082 -3.8125 17.375 C-8.0238265 16.87954982 -9.30545019 15.15647263 -12 12 C-12.33 11.67 -12.66 11.34 -13 11 C-13.375 8.25 -13.375 8.25 -13 5 C-8.71885816 -0.06977323 -6.4992211 -1.68979749 0 0 Z " fill="#090908" transform="translate(260,274)"/>
<path d="M0 0 C2.36443385 0.76342421 3.91808077 1.61205385 6 3 C5.84817368 5.65696068 5.52675976 7.44234524 3.66796875 9.41015625 C-0.67373683 13.03352611 -3.24206477 14.37103173 -8.95703125 14.27734375 C-12.29586066 13.8240801 -13.86434727 12.53608761 -16 10 C-16.5625 7 -16.5625 7 -16 4 C-11.69373185 -1.57697022 -6.51266322 -0.75546893 0 0 Z " fill="#D0CECB" transform="translate(334,271)"/>
<path d="M0 0 C4.73986729 1.12144734 7.47483533 3.54233112 10.11328125 7.5 C9.78328125 8.82 9.45328125 10.14 9.11328125 11.5 C1.52328125 11.5 -6.06671875 11.5 -13.88671875 11.5 C-14.21671875 10.18 -14.54671875 8.86 -14.88671875 7.5 C-10.34669465 2.65070995 -6.89009911 -0.57119993 0 0 Z " fill="#D3D1CE" transform="translate(220.88671875,245.5)"/>
<path d="M0 0 C1.98 0 3.96 0 6 0 C6.99 1.98 7.98 3.96 9 6 C10.65 6 12.3 6 14 6 C14 6.66 14 7.32 14 8 C13.01 8 12.02 8 11 8 C10.34 10.31 9.68 12.62 9 15 C8.01 15 7.02 15 6 15 C5.67 14.34 5.34 13.68 5 13 C4.67 13.66 4.34 14.32 4 15 C3.34 15 2.68 15 2 15 C1.67 14.34 1.34 13.68 1 13 C0.67 13.66 0.34 14.32 0 15 C-0.66 15 -1.32 15 -2 15 C-2 12.69 -2 10.38 -2 8 C-1.34 7.67 -0.68 7.34 0 7 C0 4.69 0 2.38 0 0 Z " fill="#C4C3C0" transform="translate(227,302)"/>
<path d="M0 0 C0.99 0.66 1.98 1.32 3 2 C5.28648848 2.24107326 5.28648848 2.24107326 7.6875 2.125 C8.49574219 2.10695313 9.30398438 2.08890625 10.13671875 2.0703125 C10.75160156 2.04710937 11.36648438 2.02390625 12 2 C11.360625 2.556875 10.72125 3.11375 10.0625 3.6875 C7.80319013 6.22066561 7.36850953 7.68341424 7 11 C-1.76098667 11.91862773 -1.76098667 11.91862773 -4.70703125 9.734375 C-6 8.125 -6 8.125 -8 5 C-8.66 4.34 -9.32 3.68 -10 3 C-3.25 1.875 -3.25 1.875 -1 3 C-0.67 2.01 -0.34 1.02 0 0 Z " fill="#BBB9B7" transform="translate(255,306)"/>
<path d="M0 0 C4 0 4 0 7 1 C6.01 1.33 5.02 1.66 4 2 C5.32 3.32 6.64 4.64 8 6 C8.66 4.02 9.32 2.04 10 0 C10.99 0 11.98 0 13 0 C13.66 2.31 14.32 4.62 15 7 C13.39620659 7.05416188 11.79188594 7.09286638 10.1875 7.125 C9.29417969 7.14820313 8.40085937 7.17140625 7.48046875 7.1953125 C5 7 5 7 2 5 C1.34 5.66 0.68 6.32 0 7 C0 4.69 0 2.38 0 0 Z " fill="#323231" transform="translate(253,302)"/>
<path d="M0 0 C1.2684375 0.12375 1.2684375 0.12375 2.5625 0.25 C4.5625 3.25 4.5625 3.25 4.5625 7.25 C1.1875 7.375 1.1875 7.375 -2.4375 7.25 C-3.0975 6.59 -3.7575 5.93 -4.4375 5.25 C-3.90640564 1.74477721 -3.68277052 0.37772005 0 0 Z " fill="#5D5C5B" transform="translate(266.4375,309.75)"/>
<path d="M0 0 C1.2684375 0.12375 1.2684375 0.12375 2.5625 0.25 C4.5625 3.25 4.5625 3.25 4.1875 5.4375 C3.98125 6.035625 3.775 6.63375 3.5625 7.25 C0.6875 7.375 0.6875 7.375 -2.4375 7.25 C-3.0975 6.59 -3.7575 5.93 -4.4375 5.25 C-3.90640564 1.74477721 -3.68277052 0.37772005 0 0 Z " fill="#5B5A59" transform="translate(273.4375,301.75)"/>
<path d="M0 0 C2.99332739 0.9977758 3.94766315 1.7522025 6 4 C6.33 2.68 6.66 1.36 7 0 C7.99 0 8.98 0 10 0 C10 2.31 10 4.62 10 7 C9.34 7 8.68 7 8 7 C7.67 6.34 7.34 5.68 7 5 C6.67 5.66 6.34 6.32 6 7 C5.34 7 4.68 7 4 7 C3.67 6.34 3.34 5.68 3 5 C2.67 5.66 2.34 6.32 2 7 C1.34 7 0.68 7 0 7 C0 4.69 0 2.38 0 0 Z " fill="#252525" transform="translate(225,310)"/>
<path d="M0 0 C2.31 0 4.62 0 7 0 C6.979375 0.78375 6.95875 1.5675 6.9375 2.375 C6.81315937 4.98114961 6.81315937 4.98114961 8 7 C7.01 6.67 6.02 6.34 5 6 C5 5.34 5 4.68 5 4 C4.01 4 3.02 4 2 4 C2 4.99 2 5.98 2 7 C1.34 7 0.68 7 0 7 C0 4.69 0 2.38 0 0 Z " fill="#151414" transform="translate(279,310)"/>
<path d="M0 0 C1.98 0 3.96 0 6 0 C6.5625 1.9375 6.5625 1.9375 7 4 C6 5 6 5 3.4375 5.0625 C2.2309375 5.0315625 2.2309375 5.0315625 1 5 C0.67 5.66 0.34 6.32 0 7 C0 4.69 0 2.38 0 0 Z " fill="#494847" transform="translate(227,302)"/>
<path d="M0 0 C0.99 0.33 1.98 0.66 3 1 C4.1875 4.0625 4.1875 4.0625 5 7 C2.36 7 -0.28 7 -3 7 C-2.01 4.69 -1.02 2.38 0 0 Z " fill="#343333" transform="translate(256,310)"/>
<path d="M0 0 C0.99 0 1.98 0 3 0 C4.0625 1.8125 4.0625 1.8125 5 4 C4.67 4.99 4.34 5.98 4 7 C2.02 7 0.04 7 -2 7 C-1.34 4.69 -0.68 2.38 0 0 Z " fill="#343433" transform="translate(237,302)"/>
<path d="M0 0 C2.9375 0.75 2.9375 0.75 6 2 C6.875 4.125 6.875 4.125 7 6 C3.535 7.485 3.535 7.485 0 9 C0 8.01 0 7.02 0 6 C1.32 5.67 2.64 5.34 4 5 C4 4.34 4 3.68 4 3 C2.68 2.67 1.36 2.34 0 2 C0 1.34 0 0.68 0 0 Z " fill="#1C1C1C" transform="translate(204,307)"/>
<path d="M0 0 C-0.639375 0.556875 -1.27875 1.11375 -1.9375 1.6875 C-4.19680987 4.22066561 -4.63149047 5.68341424 -5 9 C-7.15377564 6.37801226 -8.40072174 4.35595828 -9 1 C-5.92677456 0.08941469 -3.19902639 -0.08886184 0 0 Z " fill="#C2C0BD" transform="translate(267,308)"/>
<path d="M0 0 C4 0 4 0 7 1 C6.01 1.33 5.02 1.66 4 2 C5.32 3.65 6.64 5.3 8 7 C5.83125748 6.49396008 4.00032373 6.00016187 2 5 C1.34 5.66 0.68 6.32 0 7 C0 4.69 0 2.38 0 0 Z " fill="#252524" transform="translate(253,302)"/>
<path d="M0 0 C1.98 0 3.96 0 6 0 C4.68 0.33 3.36 0.66 2 1 C2 1.66 2 2.32 2 3 C3.32 3.33 4.64 3.66 6 4 C4.68 4 3.36 4 2 4 C2 4.66 2 5.32 2 6 C3.32 6.33 4.64 6.66 6 7 C4.02 7 2.04 7 0 7 C0 4.69 0 2.38 0 0 Z " fill="#0B0B0B" transform="translate(279,302)"/>
<path d="M0 0 C2.31 0 4.62 0 7 0 C7 0.99 7 1.98 7 3 C5.02 3 3.04 3 1 3 C0.67 2.01 0.34 1.02 0 0 Z " fill="#595957" transform="translate(279,310)"/>
</svg>
